#N canvas 754 264 440 659 10;
#X obj 82 368 dac~;
#X floatatom 83 135 5 0 0 0 frq frq -;
#X obj 83 200 osc~ 440;
#X obj 79 310 *~;
#X msg 239 99 1 20;
#X obj 241 185 line~;
#X obj 321 64 delay 100;
#X msg 320 135 0 200;
#X obj 238 22 bng 15 250 50 0 empty trigger empty 17 7 0 10 -262144
-1 -1;
#X connect 1 0 2 0;
#X connect 2 0 3 0;
#X connect 3 0 0 0;
#X connect 3 0 0 1;
#X connect 4 0 5 0;
#X connect 5 0 3 1;
#X connect 6 0 7 0;
#X connect 7 0 5 0;
#X connect 8 0 4 0;
#X connect 8 0 6 0;
